<svg width="209" height="209" viewBox="0 0 209 209" fill="none" xmlns="http://www.w3.org/2000/svg">
    <path
        d="M104.4 0C162.059 0 208.8 46.7415 208.8 104.4C208.8 162.059 162.059 208.8 104.4 208.8C46.7415 208.8 0 162.059 0 104.4C0 46.7415 46.7415 0 104.4 0ZM104.4 20.88C58.2732 20.88 20.88 58.2732 20.88 104.4C20.88 150.527 58.2732 187.92 104.4 187.92C150.527 187.92 187.92 150.527 187.92 104.4C187.92 58.2732 150.527 20.88 104.4 20.88ZM93.96 52.2C99.0852 52.2 103.348 55.8932 104.232 60.7634L104.4 62.64V104.4H135.72C141.486 104.4 146.16 109.074 146.16 114.84C146.16 119.965 142.467 124.228 137.597 125.112L135.72 125.28H93.96C88.8348 125.28 84.5722 121.587 83.6882 116.717L83.52 114.84V62.64C83.52 56.8742 88.1942 52.2 93.96 52.2Z"
        fill="#fff" />
</svg>
    