<svg width="40" height="40" viewBox="0 0 40 40" fill="none" xmlns="http://www.w3.org/2000/svg">
    <path
        d="M20 0C31.0457 0 40 8.9543 40 20C40 31.0457 31.0457 40 20 40C8.9543 40 0 31.0457 0 20C0 8.9543 8.9543 0 20 0ZM20 3.33333C10.7953 3.33333 3.33333 10.7953 3.33333 20C3.33333 29.2047 10.7953 36.6667 20 36.6667C29.2047 36.6667 36.6667 29.2047 36.6667 20C36.6667 10.7953 29.2047 3.33333 20 3.33333ZM12.7953 13.219L12.9882 12.9882C13.5667 12.4096 14.4648 12.3453 15.1144 12.7953L15.3452 12.9882L20 17.6433L24.6548 12.9882C25.2334 12.4096 26.1315 12.3453 26.781 12.7953L27.0118 12.9882C27.5904 13.5667 27.6547 14.4648 27.2047 15.1144L27.0118 15.3452L22.3567 20L27.0118 24.6548C27.5904 25.2334 27.6547 26.1315 27.2047 26.781L27.0118 27.0118C26.4333 27.5904 25.5352 27.6547 24.8856 27.2047L24.6548 27.0118L20 22.3567L15.3452 27.0118C14.7666 27.5904 13.8685 27.6547 13.219 27.2047L12.9882 27.0118C12.4096 26.4333 12.3453 25.5352 12.7953 24.8856L12.9882 24.6548L17.6433 20L12.9882 15.3452C12.4096 14.7666 12.3453 13.8685 12.7953 13.219Z"
        fill="#991b1b" />
</svg>