<svg width="40" height="48" viewBox="0 0 40 48" fill="none" xmlns="http://www.w3.org/2000/svg">
    <path
        d="M4.00117 8.341L4 34C4 39.3019 8.12614 43.6402 13.3425 43.9787L14 44L31.6576 44.0028C30.8331 46.3317 28.6114 48 26 48H12C5.37258 48 0 42.6274 0 36V14C0 11.3871 1.67017 9.16434 4.00117 8.341ZM34 0C37.3137 0 40 2.68629 40 6V34C40 37.3137 37.3137 40 34 40H14C10.6863 40 8 37.3137 8 34V6C8 2.68629 10.6863 0 14 0H34ZM34 4H14C12.8954 4 12 4.89543 12 6V34C12 35.1046 12.8954 36 14 36H34C35.1046 36 36 35.1046 36 34V6C36 4.89543 35.1046 4 34 4Z"
        fill="#000" />
</svg>