<svg width="209" height="209" viewBox="0 0 209 209" fill="none" xmlns="http://www.w3.org/2000/svg">
    <path d="M146.959 117.13L109.673 154.416C106.761 157.328 102.039 157.328 99.1271 154.416L61.8407 117.13C58.9294 114.218 58.9294 109.496 61.8407 106.584C64.7534 103.672 69.4753 103.672 72.388 106.584L96.9429 131.14V59.6572C96.9429 55.5394 100.282 52.2001 104.4 52.2001C108.518 52.2001 111.857 55.5394 111.857 59.6572V131.14L136.413 106.584C139.325 103.672 144.047 103.672 146.959 106.584C149.871 109.496 149.871 114.218 146.959 117.13Z" fill="#000"/>
    <path d="M104.4 208.8C162.059 208.8 208.8 162.059 208.8 104.4C208.8 46.7414 162.059 4.95911e-05 104.4 4.95911e-05C46.7414 4.95911e-05 4.95911e-05 46.7414 4.95911e-05 104.4C4.95911e-05 162.059 46.7414 208.8 104.4 208.8ZM193.886 104.4C193.886 153.822 153.822 193.886 104.4 193.886C54.9786 193.886 14.9143 153.822 14.9143 104.4C14.9143 54.9786 54.9786 14.9143 104.4 14.9143C153.822 14.9143 193.886 54.9786 193.886 104.4Z" fill="#000"/>
    </svg>
    