<svg width="213" height="276" viewBox="0 0 213 276" fill="none" xmlns="http://www.w3.org/2000/svg">
	<path
		d="M11.0701 254.796H201.781C207.633 254.796 212.376 259.539 212.376 265.391C212.376 270.592 208.628 274.918 203.685 275.815L201.781 275.986H11.0701C5.21866 275.986 0.475098 271.242 0.475098 265.391C0.475098 260.19 4.2231 255.864 9.16567 254.967L11.0701 254.796ZM104.521 0.685349L106.426 0.514648C111.627 0.514648 115.953 4.26265 116.85 9.20522L117.021 11.1097V197.413L173.852 140.601C177.53 136.923 183.239 136.514 187.368 139.375L188.836 140.601C192.514 144.278 192.922 149.988 190.062 154.117L188.836 155.584L113.917 230.502C110.24 234.18 104.53 234.589 100.401 231.728L98.9338 230.502L24.0154 155.584C19.8778 151.447 19.8778 144.738 24.0154 140.601C27.6933 136.923 33.4025 136.514 37.5317 139.375L38.9991 140.601L95.8305 197.413V11.1097C95.8305 5.90838 99.5785 1.58245 104.521 0.685349Z"
		fill="#000" />
</svg>
	