<svg width="508" height="508" viewBox="0 0 508 508" fill="none" xmlns="http://www.w3.org/2000/svg">
    <path
        d="M253.859 211.549C265.543 211.549 275.014 221.021 275.014 232.704V359.634C275.014 371.316 265.543 380.789 253.859 380.789C242.176 380.789 232.704 371.316 232.704 359.634V232.704C232.704 221.021 242.176 211.549 253.859 211.549Z"
        fill="#000" />
    <path
        d="M253.859 179.776C271.362 179.776 285.551 165.587 285.551 148.085C285.551 130.582 271.362 116.393 253.859 116.393C236.357 116.393 222.168 130.582 222.168 148.085C222.168 165.587 236.357 179.776 253.859 179.776Z"
        fill="#000" />
    <path
        d="M0 253.859C0 113.657 113.657 0 253.859 0C394.061 0 507.718 113.657 507.718 253.859C507.718 394.061 394.061 507.718 253.859 507.718C113.657 507.718 0 394.061 0 253.859ZM253.859 42.3099C137.024 42.3099 42.3099 137.024 42.3099 253.859C42.3099 370.694 137.024 465.408 253.859 465.408C370.694 465.408 465.408 370.694 465.408 253.859C465.408 137.024 370.694 42.3099 253.859 42.3099Z"
        fill="#000" />
</svg>