<svg width="209" height="209" viewBox="0 0 209 209" fill="none" xmlns="http://www.w3.org/2000/svg">
    <path
        d="M208.8 104.4C208.8 162.059 162.059 208.8 104.4 208.8C46.742 208.8 3.8147e-05 162.059 3.8147e-05 104.4C3.8147e-05 46.742 46.742 3.8147e-05 104.4 3.8147e-05C162.059 3.8147e-05 208.8 46.742 208.8 104.4ZM193.14 104.4C193.14 55.3905 153.41 15.66 104.4 15.66C55.3905 15.66 15.66 55.3905 15.66 104.4C15.66 153.41 55.3905 193.14 104.4 193.14C153.41 193.14 193.14 153.41 193.14 104.4ZM125.597 57.1037C128.654 60.1616 128.654 65.1185 125.597 68.1764L89.3738 104.4L125.597 140.623C128.654 143.681 128.654 148.639 125.597 151.697C122.538 154.754 117.582 154.754 114.524 151.697L72.7637 109.936C69.7058 106.879 69.7058 101.922 72.7637 98.8637L114.524 57.1037C117.582 54.0458 122.538 54.0458 125.597 57.1037Z"
        fill="#000" />
</svg>
    