<svg width="209" height="122" viewBox="0 0 209 122" fill="none" xmlns="http://www.w3.org/2000/svg">
    <path
        d="M130.5 0H147.9C181.534 0 208.8 27.2659 208.8 60.9C208.8 93.4131 183.322 119.975 151.278 121.71L147.94 121.8L130.54 121.88C125.735 121.902 121.822 118.025 121.8 113.22C121.781 108.949 124.842 105.383 128.897 104.627L130.46 104.48L147.9 104.4C171.924 104.4 191.4 84.9244 191.4 60.9C191.4 37.8366 173.451 18.9653 150.76 17.4925L147.9 17.4H130.5C125.695 17.4 121.8 13.5049 121.8 8.7C121.8 4.429 124.878 0.876815 128.936 0.140169L130.5 0ZM60.9 0H78.3C83.1049 0 87 3.89513 87 8.7C87 12.971 83.9224 16.5232 79.8639 17.2598L78.3 17.4H60.9C36.8756 17.4 17.4 36.8756 17.4 60.9C17.4 83.9635 35.3487 102.835 58.0399 104.308L60.9 104.4H78.3C83.1049 104.4 87 108.295 87 113.1C87 117.371 83.9224 120.923 79.8639 121.66L78.3 121.8H60.9C27.2659 121.8 0 94.5342 0 60.9C0 28.387 25.4784 1.8248 57.5586 0.0901134L60.9 0ZM60.904 52.2L147.904 52.24C152.709 52.2422 156.602 56.1391 156.6 60.944C156.598 65.215 153.519 68.7657 149.46 69.5005L147.896 69.64L60.896 69.6C56.0912 69.5978 52.1978 65.7009 52.2 60.896C52.202 56.625 55.2813 53.0743 59.3401 52.3395L60.904 52.2Z"
        fill="#000" />
</svg>
    