<svg width="209" height="209" viewBox="0 0 209 209" fill="none" xmlns="http://www.w3.org/2000/svg">
    <path
        d="M0 104.4C0 46.7414 46.7414 0 104.4 0C162.058 0 208.8 46.7414 208.8 104.4C208.8 162.058 162.058 208.8 104.4 208.8C46.7414 208.8 0 162.058 0 104.4ZM15.66 104.4C15.66 153.41 55.3903 193.14 104.4 193.14C153.41 193.14 193.14 153.41 193.14 104.4C193.14 55.3903 153.41 15.66 104.4 15.66C55.3903 15.66 15.66 55.3903 15.66 104.4ZM83.2034 151.696C80.1456 148.638 80.1456 143.682 83.2034 140.624L119.426 104.4L83.2034 68.1766C80.1456 65.1189 80.1456 60.1611 83.2034 57.1034C86.2616 54.0456 91.2185 54.0456 94.2763 57.1034L136.036 98.8637C139.094 101.922 139.094 106.878 136.036 109.936L94.2763 151.696C91.2185 154.754 86.2616 154.754 83.2034 151.696Z"
        fill="#ecd9cb" />
</svg>
    