<svg width="209" height="209" viewBox="0 0 209 209" fill="none" xmlns="http://www.w3.org/2000/svg">
    <path
        d="M61.8413 91.6699L99.1271 54.3842C102.039 51.4719 106.761 51.4719 109.673 54.3842L146.959 91.6699C149.871 94.5821 149.871 99.3036 146.959 102.216C144.047 105.128 139.325 105.128 136.412 102.216L111.857 77.6603V149.143C111.857 153.261 108.518 156.6 104.4 156.6C100.282 156.6 96.9429 153.261 96.9429 149.143V77.6603L72.3872 102.216C69.4751 105.128 64.7535 105.128 61.8413 102.216C58.929 99.3036 58.929 94.5821 61.8413 91.6699Z"
        fill="#000" />
    <path
        d="M104.4 0C46.7415 0 0 46.7415 0 104.4C0 162.059 46.7415 208.8 104.4 208.8C162.059 208.8 208.8 162.059 208.8 104.4C208.8 46.7415 162.059 0 104.4 0ZM14.9143 104.4C14.9143 54.9784 54.9784 14.9143 104.4 14.9143C153.821 14.9143 193.886 54.9784 193.886 104.4C193.886 153.821 153.821 193.886 104.4 193.886C54.9784 193.886 14.9143 153.821 14.9143 104.4Z"
        fill="#000" />
</svg>
    